<svg xmlns="http://www.w3.org/2000/svg" version="1.1" xmlns:xlink="http://www.w3.org/1999/xlink" xmlns:svgjs="http://svgjs.com/svgjs" width="1920" height="1080" preserveAspectRatio="none" viewBox="0 0 1920 1080"><g mask="url(&quot;#SvgjsMask1023&quot;)" fill="none"><path d="M629.06 1220.74C891.09 1175.21 1021.74 529.13 1435.34 526.77 1848.95 524.41 2024.48 844.78 2241.63 850.77" stroke="rgba(51,121,194,0.58)" stroke-width="2"></path><path d="M1174.66 1129.22C1325.89 1108.48 1346.4 808.59 1658.43 756.71 1970.46 704.83 1981.33 345.59 2142.2 313.91" stroke="rgba(51,121,194,0.58)" stroke-width="2"></path><path d="M735.85 1239.55C1003.16 1150.79 1064.37 382.22 1452.62 370.32 1840.87 358.42 1977.96 635.89 2169.39 640.32" stroke="rgba(51,121,194,0.58)" stroke-width="2"></path><path d="M914.11 1228.98C1092.97 1042.1 973.39 269 1266.14 255.98 1558.89 242.96 1760.32 700.1 1970.2 720.38" stroke="rgba(51,121,194,0.58)" stroke-width="2"></path><path d="M827.26 1152.6C964.35 1138.39 899.72 862.51 1283.18 842.66 1666.64 822.81 1947.32 461.86 2195.01 453.86" stroke="rgba(51,121,194,0.58)" stroke-width="2"></path></g><defs><mask id="SvgjsMask1023"><rect width="1920" height="1080" fill="#ffffff"></rect></mask></defs></svg>